<svg width="100" height="100" viewBox="0 0 100 100" fill="none" xmlns="http://www.w3.org/2000/svg">
<g clip-path="url(#clip0_1_11)">
<path d="M30.5057 83.098C30.0483 83.098 29.6237 82.9347 29.2317 82.608C28.905 82.216 28.7417 81.7913 28.7417 81.334V79.962C28.7417 79.4393 28.905 79.0147 29.2317 78.688C29.6237 78.3613 30.0483 78.198 30.5057 78.198H41.3837C43.2783 78.198 44.781 77.904 45.8917 77.316C47.0023 76.728 47.819 75.8133 48.3417 74.572C48.8643 73.2653 49.1257 71.5667 49.1257 69.476V25.768C49.1257 24.788 48.7337 24.298 47.9497 24.298C47.427 24.298 46.839 24.5593 46.1857 25.082L32.9557 36.156C32.237 36.6133 31.7143 36.842 31.3877 36.842C30.669 36.842 30.3097 36.4827 30.3097 35.764V32.236L49.1257 16.36H52.6537C53.0457 16.36 53.3723 16.4907 53.6337 16.752C53.895 17.0133 54.0257 17.34 54.0257 17.732V69.476C54.0257 71.632 54.287 73.3633 54.8097 74.67C55.3977 75.9113 56.2797 76.826 57.4557 77.414C58.697 77.9367 60.3303 78.198 62.3557 78.198H70.9797C71.5023 78.198 71.927 78.3613 72.2537 78.688C72.5803 79.0147 72.7437 79.4393 72.7437 79.962V81.334C72.7437 81.7913 72.5803 82.216 72.2537 82.608C71.927 82.9347 71.5023 83.098 70.9797 83.098C67.517 83.098 63.695 83.0327 59.5137 82.902L51.9677 82.804L43.8337 82.902C39.1297 83.0327 34.687 83.098 30.5057 83.098Z" fill="black"/>
</g>
<defs>
<clipPath id="clip0_1_11">
<rect width="100" height="100" fill="white"/>
</clipPath>
</defs>
</svg>
