<svg width="100" height="100" viewBox="0 0 100 100" fill="none" xmlns="http://www.w3.org/2000/svg">
<g clip-path="url(#clip0_2_5)">
<path d="M57.2597 78.1C59.873 78.1 61.931 77.7407 63.4337 77.022C65.0017 76.238 66.1123 75.062 66.7657 73.494C67.419 71.926 67.7457 69.868 67.7457 67.32V62.42C67.7457 61.8973 67.909 61.4727 68.2357 61.146C68.5623 60.8193 68.987 60.656 69.5097 60.656H70.8817C71.339 60.656 71.7637 60.8193 72.1557 61.146C72.5477 61.4727 72.7437 61.9953 72.7437 62.714C72.7437 63.8247 72.711 64.8373 72.6457 65.752C72.6457 66.6667 72.613 67.516 72.5477 68.3C72.417 69.9987 72.3517 71.338 72.3517 72.318C72.3517 73.7553 72.417 75.5847 72.5477 77.806C72.6783 79.766 72.7437 81.1707 72.7437 82.02C72.7437 82.6733 72.417 83 71.7637 83H28.0557C27.6637 83 27.337 82.8693 27.0757 82.608C26.8143 82.3467 26.6837 82.02 26.6837 81.628V78.1H57.2597ZM37.4637 69.378C43.9317 64.1513 48.995 59.7413 52.6537 56.148C56.3777 52.4893 59.2197 48.9613 61.1797 45.564C63.1397 42.1013 64.1197 38.508 64.1197 34.784C64.1197 30.08 62.715 26.4213 59.9057 23.808C57.0963 21.1947 53.0457 19.888 47.7537 19.888C42.2003 19.888 37.9863 21.3253 35.1117 24.2C32.3023 27.0747 30.6037 31.256 30.0157 36.744C29.9503 37.136 29.7543 37.4627 29.4277 37.724C29.101 37.9853 28.7417 38.116 28.3497 38.116H27.2717C26.749 38.116 26.2917 37.92 25.8997 37.528C25.5077 37.0707 25.3443 36.548 25.4097 35.96C25.9977 29.1 28.2517 23.906 32.1717 20.378C36.0917 16.7847 41.2857 14.988 47.7537 14.988C54.2217 14.988 59.481 16.654 63.5317 19.986C67.5823 23.318 69.6077 28.2507 69.6077 34.784C69.6077 38.9 68.497 42.8853 66.2757 46.74C64.1197 50.5947 61.2123 54.3513 57.5537 58.01C53.9603 61.6033 49.289 65.7847 43.5397 70.554L33.0537 79.178L26.6837 78.1L37.4637 69.378Z" fill="black"/>
</g>
<defs>
<clipPath id="clip0_2_5">
<rect width="100" height="100" fill="white"/>
</clipPath>
</defs>
</svg>
