<svg width="100" height="100" viewBox="0 0 100 100" fill="none" xmlns="http://www.w3.org/2000/svg">
<g clip-path="url(#clip0_2_7)">
<path d="M49.8117 84.372C45.369 84.372 41.4817 83.8493 38.1497 82.804C34.883 81.6933 32.335 80.158 30.5057 78.198C28.6763 76.1727 27.7617 73.788 27.7617 71.044C27.7617 68.7573 28.3823 66.9607 29.6237 65.654C30.9303 64.282 32.629 63.596 34.7197 63.596C36.4183 63.596 37.6597 63.988 38.4437 64.772C39.293 65.4907 39.783 66.536 39.9137 67.908C39.979 68.5613 40.0117 69.7047 40.0117 71.338C40.0117 74.2127 40.1097 76.4667 40.3057 78.1C42.3963 78.7533 44.1277 79.2107 45.4997 79.472C46.937 79.7333 48.4723 79.864 50.1057 79.864C56.051 79.864 60.559 78.59 63.6297 76.042C66.7657 73.4287 68.3337 69.6393 68.3337 64.674C68.3337 61.146 67.5823 58.4347 66.0797 56.54C64.577 54.6453 62.1923 53.3387 58.9257 52.62C55.659 51.836 51.1183 51.444 45.3037 51.444H42.8537C42.3963 51.444 41.9717 51.2807 41.5797 50.954C41.253 50.562 41.0897 50.1373 41.0897 49.68V47.622L44.7157 46.936C53.797 46.4787 60.9183 47.5567 66.0797 50.17C71.241 52.7833 73.8217 57.618 73.8217 64.674C73.8217 68.7247 72.809 72.2527 70.7837 75.258C68.8237 78.198 66.047 80.452 62.4537 82.02C58.8603 83.588 54.6463 84.372 49.8117 84.372ZM45.7937 48.406L41.0897 47.622L65.9817 20.182L70.9797 21.26L45.7937 48.406ZM30.5057 37.626C29.983 37.626 29.5257 37.4627 29.1337 37.136C28.807 36.744 28.6437 36.2867 28.6437 35.764C28.6437 34.196 28.709 32.1053 28.8397 29.492L28.9377 25.18C28.9377 24.3307 28.8723 23.0567 28.7417 21.358L28.6437 18.026C28.6437 17.5687 28.807 17.1767 29.1337 16.85C29.4603 16.5233 29.8523 16.36 30.3097 16.36H69.6077C69.9997 16.36 70.3263 16.4907 70.5877 16.752C70.849 17.0133 70.9797 17.34 70.9797 17.732V21.26H42.7557C39.881 21.26 37.823 21.6193 36.5817 22.338C35.4057 22.9913 34.6217 24.298 34.2297 26.258C33.8377 28.1527 33.6417 31.3213 33.6417 35.764C33.6417 36.2867 33.4783 36.744 33.1517 37.136C32.825 37.4627 32.4003 37.626 31.8777 37.626H30.5057Z" fill="black"/>
</g>
<defs>
<clipPath id="clip0_2_7">
<rect width="100" height="100" fill="white"/>
</clipPath>
</defs>
</svg>
