<svg width="100" height="100" viewBox="0 0 100 100" fill="none" xmlns="http://www.w3.org/2000/svg">
<g clip-path="url(#clip0_2_9)">
<path d="M42.4617 83.098C42.0043 83.098 41.5797 82.9347 41.1877 82.608C40.861 82.216 40.6977 81.7913 40.6977 81.334V79.766C40.6977 79.2433 40.861 78.8187 41.1877 78.492C41.5797 78.1653 42.0043 78.002 42.4617 78.002H51.3797C52.9477 78.002 53.9603 77.7407 54.4177 77.218C54.9403 76.6953 55.2017 75.5193 55.2017 73.69V16.36H58.7297C59.1217 16.36 59.4483 16.4907 59.7097 16.752C59.971 17.0133 60.1017 17.34 60.1017 17.732V73.69C60.1017 75.454 60.3303 76.63 60.7877 77.218C61.245 77.7407 62.127 78.002 63.4337 78.002H71.1757C71.6983 78.002 72.123 78.1653 72.4497 78.492C72.7763 78.8187 72.9397 79.2433 72.9397 79.766V81.334C72.9397 81.7913 72.7763 82.216 72.4497 82.608C72.123 82.9347 71.6983 83.098 71.1757 83.098C69.085 83.098 66.6023 83.0327 63.7277 82.902L58.0437 82.804L52.0657 82.902C48.799 83.0327 45.5977 83.098 42.4617 83.098ZM26.2917 61.93C25.8343 61.93 25.4097 61.7667 25.0177 61.44C24.691 61.048 24.5277 60.6233 24.5277 60.166V57.422H75.5857C76.1083 57.422 76.533 57.5853 76.8597 57.912C77.1863 58.2387 77.3497 58.6633 77.3497 59.186V60.166C77.3497 60.6233 77.1863 61.048 76.8597 61.44C76.533 61.7667 76.1083 61.93 75.5857 61.93H26.2917ZM24.5277 57.422L55.2017 16.36H58.1417V19.398L29.9177 57.422H24.5277Z" fill="black"/>
</g>
<defs>
<clipPath id="clip0_2_9">
<rect width="100" height="100" fill="white"/>
</clipPath>
</defs>
</svg>
