<svg width="100" height="100" viewBox="0 0 100 100" fill="none" xmlns="http://www.w3.org/2000/svg">
<g clip-path="url(#clip0_2_11)">
<path d="M59.8077 16.36C61.5717 16.36 62.7477 16.262 63.3357 16.066C63.9237 15.8047 64.2177 15.4453 64.2177 14.988C64.2177 14.5307 64.381 14.1713 64.7077 13.91C65.0997 13.5833 65.557 13.42 66.0797 13.42H67.4517C67.9743 13.42 68.399 13.5833 68.7257 13.91C69.0523 14.2367 69.2157 14.6613 69.2157 15.184C69.2157 15.38 69.2157 15.576 69.2157 15.772C69.2157 15.968 69.183 16.164 69.1177 16.36C69.1177 16.556 69.085 16.752 69.0197 16.948C69.0197 17.144 69.0197 17.3727 69.0197 17.634C69.0197 17.83 69.0197 18.026 69.0197 18.222C69.085 18.3527 69.1177 18.4833 69.1177 18.614C69.183 18.7447 69.2157 18.908 69.2157 19.104C69.2157 19.3 69.2157 19.496 69.2157 19.692C69.2157 20.7373 68.6277 21.26 67.4517 21.26H34.0337L37.8557 17.34L35.1117 49.876L32.3677 46.74C33.9357 46.152 36.255 45.5313 39.3257 44.878C42.4617 44.2247 45.3363 43.898 47.9497 43.898C56.1163 43.898 62.323 45.564 66.5697 48.896C70.8817 52.1627 73.0377 56.8993 73.0377 63.106C73.0377 69.77 70.7183 74.9967 66.0797 78.786C61.441 82.51 55.267 84.372 47.5577 84.372C43.3763 84.372 39.6523 83.8493 36.3857 82.804C33.1843 81.6933 30.669 80.1253 28.8397 78.1C27.0757 76.0747 26.1937 73.7227 26.1937 71.044C26.1937 68.7573 26.8143 66.9607 28.0557 65.654C29.3623 64.282 31.061 63.596 33.1517 63.596C36.2877 63.596 38.019 65.0333 38.3457 67.908C38.411 68.5613 38.4437 69.6393 38.4437 71.142C38.4437 74.082 38.6397 76.4013 39.0317 78.1C40.861 78.7533 42.3637 79.2107 43.5397 79.472C44.781 79.7333 46.1203 79.864 47.5577 79.864C53.5683 79.864 58.403 78.492 62.0617 75.748C65.7203 73.004 67.5497 68.79 67.5497 63.106C67.5497 58.3367 65.8837 54.8087 62.5517 52.522C59.2197 50.17 54.3523 48.994 47.9497 48.994C45.3363 48.994 42.9517 49.1573 40.7957 49.484C38.705 49.8107 36.8103 50.2027 35.1117 50.66C33.3477 51.1173 32.1063 51.2807 31.3877 51.15C30.7343 50.954 30.473 50.2353 30.6037 48.994L33.3477 17.634C33.413 17.3073 33.5763 17.0133 33.8377 16.752C34.099 16.4907 34.393 16.36 34.7197 16.36H59.8077Z" fill="black"/>
</g>
<defs>
<clipPath id="clip0_2_11">
<rect width="100" height="100" fill="white"/>
</clipPath>
</defs>
</svg>
