<svg width="100" height="100" viewBox="0 0 100 100" fill="none" xmlns="http://www.w3.org/2000/svg">
<g clip-path="url(#clip0_2_13)">
<path d="M50.7917 84.372C45.6957 84.372 41.2857 83.2287 37.5617 80.942C33.8377 78.59 30.963 75.258 28.9377 70.946C26.9777 66.5687 25.9977 61.4073 25.9977 55.462C25.9977 46.7727 27.5003 39.4553 30.5057 33.51C33.511 27.5647 37.9537 23.0893 43.8337 20.084C49.7137 17.0787 56.933 15.576 65.4917 15.576C65.753 15.576 66.0143 15.576 66.2757 15.576C66.6023 15.576 66.8963 15.576 67.1577 15.576C67.615 15.576 68.007 15.7393 68.3337 16.066C68.6603 16.3927 68.8237 16.8173 68.8237 17.34V18.026C68.8237 18.5487 68.6277 19.006 68.2357 19.398C67.909 19.7247 67.4517 19.888 66.8637 19.888C66.6677 19.888 66.4717 19.888 66.2757 19.888C66.0797 19.888 65.8837 19.888 65.6877 19.888C65.4263 19.888 65.1977 19.888 65.0017 19.888C64.8057 19.888 64.6097 19.888 64.4137 19.888C57.5537 19.888 51.5757 21.26 46.4797 24.004C41.3837 26.6827 37.4637 30.668 34.7197 35.96C31.9757 41.252 30.669 47.6873 30.7997 55.266H31.2897C32.531 50.8887 35.079 47.3933 38.9337 44.78C42.8537 42.1667 47.3617 40.86 52.4577 40.86C56.9657 40.86 60.8857 41.7093 64.2177 43.408C67.615 45.1067 70.1957 47.5567 71.9597 50.758C73.789 53.894 74.7037 57.5853 74.7037 61.832C74.7037 66.34 73.7237 70.2927 71.7637 73.69C69.8037 77.0873 67.027 79.7333 63.4337 81.628C59.8403 83.4573 55.6263 84.372 50.7917 84.372ZM50.7917 79.864C56.4757 79.864 60.951 78.2633 64.2177 75.062C67.5497 71.7953 69.2157 67.3853 69.2157 61.832C69.2157 56.736 67.6803 52.718 64.6097 49.778C61.6043 46.838 57.4883 45.368 52.2617 45.368C46.643 45.368 42.0697 46.936 38.5417 50.072C35.0137 53.208 33.2497 57.5853 33.2497 63.204C33.2497 66.4053 33.9683 69.28 35.4057 71.828C36.9083 74.3107 38.999 76.2707 41.6777 77.708C44.3563 79.1453 47.3943 79.864 50.7917 79.864Z" fill="black"/>
</g>
<defs>
<clipPath id="clip0_2_13">
<rect width="100" height="100" fill="white"/>
</clipPath>
</defs>
</svg>
